ISO-10303-21;
HEADER;
/* Generated by software containing ST-Developer
 * from STEP Tools, Inc. (www.steptools.com) 
 */

FILE_DESCRIPTION(
/* description */ (''),
/* implementation_level */ '2;1');

FILE_NAME(
/* name */ 'Button_and_standoffs.step',
/* time_stamp */ '2026-09-22T23:13:53-06:00',
/* author */ (''),
/* organization */ (''),
/* preprocessor_version */ 'ST-DEVELOPER v20.2',
/* originating_system */ 'Autodesk Translation Framework v15.15.0.0',
/* authorisation */ '');

FILE_SCHEMA (('AUTOMOTIVE_DESIGN { 1 0 10303 214 3 1 1 }'));
ENDSEC;

DATA;
#10=MECHANICAL_DESIGN_GEOMETRIC_PRESENTATION_REPRESENTATION('',(#53,#54,
#55,#56,#57),#656);
#11=ITEM_DEFINED_TRANSFORMATION($,$,#328,#366);
#12=ITEM_DEFINED_TRANSFORMATION($,$,#334,#367);
#13=ITEM_DEFINED_TRANSFORMATION($,$,#343,#368);
#14=ITEM_DEFINED_TRANSFORMATION($,$,#352,#369);
#15=ITEM_DEFINED_TRANSFORMATION($,$,#361,#370);
#16=(
REPRESENTATION_RELATIONSHIP($,$,#679,#678)
REPRESENTATION_RELATIONSHIP_WITH_TRANSFORMATION(#11)
SHAPE_REPRESENTATION_RELATIONSHIP()
);
#17=(
REPRESENTATION_RELATIONSHIP($,$,#680,#678)
REPRESENTATION_RELATIONSHIP_WITH_TRANSFORMATION(#12)
SHAPE_REPRESENTATION_RELATIONSHIP()
);
#18=(
REPRESENTATION_RELATIONSHIP($,$,#681,#678)
REPRESENTATION_RELATIONSHIP_WITH_TRANSFORMATION(#13)
SHAPE_REPRESENTATION_RELATIONSHIP()
);
#19=(
REPRESENTATION_RELATIONSHIP($,$,#682,#678)
REPRESENTATION_RELATIONSHIP_WITH_TRANSFORMATION(#14)
SHAPE_REPRESENTATION_RELATIONSHIP()
);
#20=(
REPRESENTATION_RELATIONSHIP($,$,#683,#678)
REPRESENTATION_RELATIONSHIP_WITH_TRANSFORMATION(#15)
SHAPE_REPRESENTATION_RELATIONSHIP()
);
#21=CONTEXT_DEPENDENT_SHAPE_REPRESENTATION(#16,#673);
#22=CONTEXT_DEPENDENT_SHAPE_REPRESENTATION(#17,#674);
#23=CONTEXT_DEPENDENT_SHAPE_REPRESENTATION(#18,#675);
#24=CONTEXT_DEPENDENT_SHAPE_REPRESENTATION(#19,#676);
#25=CONTEXT_DEPENDENT_SHAPE_REPRESENTATION(#20,#677);
#26=NEXT_ASSEMBLY_USAGE_OCCURRENCE('Component1:1','Component1:1',
'Component1:1',#685,#686,'Component1:1');
#27=NEXT_ASSEMBLY_USAGE_OCCURRENCE('Component3:1','Component3:1',
'Component3:1',#685,#687,'Component3:1');
#28=NEXT_ASSEMBLY_USAGE_OCCURRENCE('Component4:1','Component4:1',
'Component4:1',#685,#688,'Component4:1');
#29=NEXT_ASSEMBLY_USAGE_OCCURRENCE('Component5:1','Component5:1',
'Component5:1',#685,#689,'Component5:1');
#30=NEXT_ASSEMBLY_USAGE_OCCURRENCE('Component6:1','Component6:1',
'Component6:1',#685,#690,'Component6:1');
#31=ELLIPSE('',#362,0.7,0.689013199745177);
#32=ELLIPSE('',#363,0.7,0.689013199745177);
#33=B_SPLINE_CURVE_WITH_KNOTS('',3,(#569,#570,#571,#572,#573,#574,#575,
#576,#577,#578,#579,#580,#581,#582,#583,#584,#585,#586,#587,#588,#589,#590,
#591,#592,#593,#594,#595,#596,#597,#598,#599,#600,#601,#602,#603,#604,#605,
#606,#607,#608,#609,#610,#611,#612),.UNSPECIFIED.,.T.,.F.,(4,2,2,2,2,2,
2,2,2,2,2,2,2,2,2,2,2,2,2,2,2,4),(0.,0.250755610232822,0.414692072817221,
0.561313386308776,0.710198443999588,0.863637306335601,1.0788636022853,1.31778456610284,
1.55579668484671,1.80881945156705,2.06588630354267,2.31816899391394,2.48287794944692,
2.62942510737809,2.77841255115642,2.93139668223865,3.14455805843884,3.38351263606754,
3.62150686143379,3.87362838812931,4.00180310583985,4.14090009173743),
 .UNSPECIFIED.);
#34=(
BOUNDED_SURFACE()
B_SPLINE_SURFACE(2,2,((#523,#524,#525,#526,#527,#528,#529,#530,#531),(#532,
#533,#534,#535,#536,#537,#538,#539,#540),(#541,#542,#543,#544,#545,#546,
#547,#548,#549),(#550,#551,#552,#553,#554,#555,#556,#557,#558),(#559,#560,
#561,#562,#563,#564,#565,#566,#567)),.UNSPECIFIED.,.F.,.T.,.F.)
B_SPLINE_SURFACE_WITH_KNOTS((3,2,3),(3,2,2,2,3),(-1.5707963267949,0.,1.5707963267949),
(0.,1.5707963267949,3.14159265358979,4.71238898038469,6.28318530717959),
 .UNSPECIFIED.)
GEOMETRIC_REPRESENTATION_ITEM()
RATIONAL_B_SPLINE_SURFACE(((1.,0.707106781186548,1.,0.707106781186548,1.,
0.707106781186548,1.,0.707106781186548,1.),(0.707106781186547,0.5,0.707106781186547,
0.5,0.707106781186547,0.5,0.707106781186547,0.5,0.707106781186547),(1.,
0.707106781186548,1.,0.707106781186548,1.,0.707106781186548,1.,0.707106781186548,
1.),(0.707106781186547,0.5,0.707106781186547,0.5,0.707106781186547,0.5,
0.707106781186547,0.5,0.707106781186547),(1.,0.707106781186548,1.,0.707106781186548,
1.,0.707106781186548,1.,0.707106781186548,1.)))
REPRESENTATION_ITEM('')
SURFACE()
);
#35=(
BOUNDED_SURFACE()
B_SPLINE_SURFACE(1,2,((#613,#614,#615,#616,#617,#618,#619,#620,#621),(#622,
#623,#624,#625,#626,#627,#628,#629,#630)),.UNSPECIFIED.,.F.,.T.,.F.)
B_SPLINE_SURFACE_WITH_KNOTS((2,2),(3,2,2,2,3),(-7.63722547686988E-17,2.5),
(-3.14159265358979,-1.5707963267949,0.,1.5707963267949,3.14159265358979),
 .UNSPECIFIED.)
GEOMETRIC_REPRESENTATION_ITEM()
RATIONAL_B_SPLINE_SURFACE(((1.,0.707106781186548,1.,0.707106781186548,1.,
0.707106781186548,1.,0.707106781186548,1.),(1.,0.707106781186548,1.,0.707106781186548,
1.,0.707106781186548,1.,0.707106781186548,1.)))
REPRESENTATION_ITEM('')
SURFACE()
);
#36=FACE_BOUND('',#98,.T.);
#37=FACE_BOUND('',#100,.T.);
#38=FACE_BOUND('',#104,.T.);
#39=FACE_BOUND('',#106,.T.);
#40=FACE_BOUND('',#110,.T.);
#41=FACE_BOUND('',#112,.T.);
#42=FACE_BOUND('',#116,.T.);
#43=SHAPE_REPRESENTATION_RELATIONSHIP('SRR','None',#679,#48);
#44=SHAPE_REPRESENTATION_RELATIONSHIP('SRR','None',#680,#49);
#45=SHAPE_REPRESENTATION_RELATIONSHIP('SRR','None',#681,#50);
#46=SHAPE_REPRESENTATION_RELATIONSHIP('SRR','None',#682,#51);
#47=SHAPE_REPRESENTATION_RELATIONSHIP('SRR','None',#683,#52);
#48=ADVANCED_BREP_SHAPE_REPRESENTATION('',(#58),#651);
#49=ADVANCED_BREP_SHAPE_REPRESENTATION('',(#59),#652);
#50=ADVANCED_BREP_SHAPE_REPRESENTATION('',(#60),#653);
#51=ADVANCED_BREP_SHAPE_REPRESENTATION('',(#61),#654);
#52=ADVANCED_BREP_SHAPE_REPRESENTATION('',(#62),#655);
#53=STYLED_ITEM('',(#713),#58);
#54=STYLED_ITEM('',(#713),#59);
#55=STYLED_ITEM('',(#713),#60);
#56=STYLED_ITEM('',(#713),#61);
#57=STYLED_ITEM('',(#713),#62);
#58=MANIFOLD_SOLID_BREP('Body1',#266);
#59=MANIFOLD_SOLID_BREP('Body1',#267);
#60=MANIFOLD_SOLID_BREP('Body1',#268);
#61=MANIFOLD_SOLID_BREP('Body1',#269);
#62=MANIFOLD_SOLID_BREP('Body1',#270);
#63=PLANE('',#332);
#64=PLANE('',#333);
#65=PLANE('',#341);
#66=PLANE('',#342);
#67=PLANE('',#350);
#68=PLANE('',#351);
#69=PLANE('',#359);
#70=PLANE('',#360);
#71=PLANE('',#364);
#72=PLANE('',#365);
#73=FACE_OUTER_BOUND('',#92,.T.);
#74=FACE_OUTER_BOUND('',#93,.T.);
#75=FACE_OUTER_BOUND('',#94,.T.);
#76=FACE_OUTER_BOUND('',#95,.T.);
#77=FACE_OUTER_BOUND('',#96,.T.);
#78=FACE_OUTER_BOUND('',#97,.T.);
#79=FACE_OUTER_BOUND('',#99,.T.);
#80=FACE_OUTER_BOUND('',#101,.T.);
#81=FACE_OUTER_BOUND('',#102,.T.);
#82=FACE_OUTER_BOUND('',#103,.T.);
#83=FACE_OUTER_BOUND('',#105,.T.);
#84=FACE_OUTER_BOUND('',#107,.T.);
#85=FACE_OUTER_BOUND('',#108,.T.);
#86=FACE_OUTER_BOUND('',#109,.T.);
#87=FACE_OUTER_BOUND('',#111,.T.);
#88=FACE_OUTER_BOUND('',#113,.T.);
#89=FACE_OUTER_BOUND('',#114,.T.);
#90=FACE_OUTER_BOUND('',#115,.T.);
#91=FACE_OUTER_BOUND('',#117,.T.);
#92=EDGE_LOOP('',(#190,#191,#192,#193));
#93=EDGE_LOOP('',(#194));
#94=EDGE_LOOP('',(#195));
#95=EDGE_LOOP('',(#196,#197,#198,#199));
#96=EDGE_LOOP('',(#200,#201,#202,#203));
#97=EDGE_LOOP('',(#204));
#98=EDGE_LOOP('',(#205));
#99=EDGE_LOOP('',(#206));
#100=EDGE_LOOP('',(#207));
#101=EDGE_LOOP('',(#208,#209,#210,#211));
#102=EDGE_LOOP('',(#212,#213,#214,#215));
#103=EDGE_LOOP('',(#216));
#104=EDGE_LOOP('',(#217));
#105=EDGE_LOOP('',(#218));
#106=EDGE_LOOP('',(#219));
#107=EDGE_LOOP('',(#220,#221,#222,#223));
#108=EDGE_LOOP('',(#224,#225,#226,#227));
#109=EDGE_LOOP('',(#228));
#110=EDGE_LOOP('',(#229));
#111=EDGE_LOOP('',(#230));
#112=EDGE_LOOP('',(#231));
#113=EDGE_LOOP('',(#232));
#114=EDGE_LOOP('',(#233,#234,#235,#236));
#115=EDGE_LOOP('',(#237));
#116=EDGE_LOOP('',(#238));
#117=EDGE_LOOP('',(#239));
#118=LINE('',#473,#126);
#119=LINE('',#482,#127);
#120=LINE('',#488,#128);
#121=LINE('',#497,#129);
#122=LINE('',#503,#130);
#123=LINE('',#512,#131);
#124=LINE('',#518,#132);
#125=LINE('',#634,#133);
#126=VECTOR('',#379,0.9);
#127=VECTOR('',#392,0.11085);
#128=VECTOR('',#399,0.22);
#129=VECTOR('',#412,0.11085);
#130=VECTOR('',#419,0.22);
#131=VECTOR('',#432,0.11085);
#132=VECTOR('',#439,0.22);
#133=VECTOR('',#450,0.7);
#134=CIRCLE('',#330,0.9);
#135=CIRCLE('',#331,0.9);
#136=CIRCLE('',#336,0.11085);
#137=CIRCLE('',#337,0.11085);
#138=CIRCLE('',#339,0.22);
#139=CIRCLE('',#340,0.22);
#140=CIRCLE('',#345,0.11085);
#141=CIRCLE('',#346,0.11085);
#142=CIRCLE('',#348,0.22);
#143=CIRCLE('',#349,0.22);
#144=CIRCLE('',#354,0.11085);
#145=CIRCLE('',#355,0.11085);
#146=CIRCLE('',#357,0.22);
#147=CIRCLE('',#358,0.22);
#148=VERTEX_POINT('',#470);
#149=VERTEX_POINT('',#472);
#150=VERTEX_POINT('',#479);
#151=VERTEX_POINT('',#481);
#152=VERTEX_POINT('',#485);
#153=VERTEX_POINT('',#487);
#154=VERTEX_POINT('',#494);
#155=VERTEX_POINT('',#496);
#156=VERTEX_POINT('',#500);
#157=VERTEX_POINT('',#502);
#158=VERTEX_POINT('',#509);
#159=VERTEX_POINT('',#511);
#160=VERTEX_POINT('',#515);
#161=VERTEX_POINT('',#517);
#162=VERTEX_POINT('',#568);
#163=VERTEX_POINT('',#631);
#164=VERTEX_POINT('',#633);
#165=EDGE_CURVE('',#148,#148,#134,.T.);
#166=EDGE_CURVE('',#148,#149,#118,.T.);
#167=EDGE_CURVE('',#149,#149,#135,.T.);
#168=EDGE_CURVE('',#150,#150,#136,.T.);
#169=EDGE_CURVE('',#150,#151,#119,.T.);
#170=EDGE_CURVE('',#151,#151,#137,.T.);
#171=EDGE_CURVE('',#152,#152,#138,.T.);
#172=EDGE_CURVE('',#152,#153,#120,.T.);
#173=EDGE_CURVE('',#153,#153,#139,.T.);
#174=EDGE_CURVE('',#154,#154,#140,.T.);
#175=EDGE_CURVE('',#154,#155,#121,.T.);
#176=EDGE_CURVE('',#155,#155,#141,.T.);
#177=EDGE_CURVE('',#156,#156,#142,.T.);
#178=EDGE_CURVE('',#156,#157,#122,.T.);
#179=EDGE_CURVE('',#157,#157,#143,.T.);
#180=EDGE_CURVE('',#158,#158,#144,.T.);
#181=EDGE_CURVE('',#158,#159,#123,.T.);
#182=EDGE_CURVE('',#159,#159,#145,.T.);
#183=EDGE_CURVE('',#160,#160,#146,.T.);
#184=EDGE_CURVE('',#160,#161,#124,.T.);
#185=EDGE_CURVE('',#161,#161,#147,.T.);
#186=EDGE_CURVE('',#162,#162,#33,.T.);
#187=EDGE_CURVE('',#163,#163,#31,.T.);
#188=EDGE_CURVE('',#163,#164,#125,.T.);
#189=EDGE_CURVE('',#164,#164,#32,.T.);
#190=ORIENTED_EDGE('',*,*,#165,.F.);
#191=ORIENTED_EDGE('',*,*,#166,.T.);
#192=ORIENTED_EDGE('',*,*,#167,.T.);
#193=ORIENTED_EDGE('',*,*,#166,.F.);
#194=ORIENTED_EDGE('',*,*,#165,.T.);
#195=ORIENTED_EDGE('',*,*,#167,.F.);
#196=ORIENTED_EDGE('',*,*,#168,.F.);
#197=ORIENTED_EDGE('',*,*,#169,.T.);
#198=ORIENTED_EDGE('',*,*,#170,.F.);
#199=ORIENTED_EDGE('',*,*,#169,.F.);
#200=ORIENTED_EDGE('',*,*,#171,.F.);
#201=ORIENTED_EDGE('',*,*,#172,.T.);
#202=ORIENTED_EDGE('',*,*,#173,.T.);
#203=ORIENTED_EDGE('',*,*,#172,.F.);
#204=ORIENTED_EDGE('',*,*,#171,.T.);
#205=ORIENTED_EDGE('',*,*,#170,.T.);
#206=ORIENTED_EDGE('',*,*,#173,.F.);
#207=ORIENTED_EDGE('',*,*,#168,.T.);
#208=ORIENTED_EDGE('',*,*,#174,.F.);
#209=ORIENTED_EDGE('',*,*,#175,.T.);
#210=ORIENTED_EDGE('',*,*,#176,.F.);
#211=ORIENTED_EDGE('',*,*,#175,.F.);
#212=ORIENTED_EDGE('',*,*,#177,.F.);
#213=ORIENTED_EDGE('',*,*,#178,.T.);
#214=ORIENTED_EDGE('',*,*,#179,.T.);
#215=ORIENTED_EDGE('',*,*,#178,.F.);
#216=ORIENTED_EDGE('',*,*,#177,.T.);
#217=ORIENTED_EDGE('',*,*,#176,.T.);
#218=ORIENTED_EDGE('',*,*,#179,.F.);
#219=ORIENTED_EDGE('',*,*,#174,.T.);
#220=ORIENTED_EDGE('',*,*,#180,.F.);
#221=ORIENTED_EDGE('',*,*,#181,.T.);
#222=ORIENTED_EDGE('',*,*,#182,.F.);
#223=ORIENTED_EDGE('',*,*,#181,.F.);
#224=ORIENTED_EDGE('',*,*,#183,.F.);
#225=ORIENTED_EDGE('',*,*,#184,.T.);
#226=ORIENTED_EDGE('',*,*,#185,.T.);
#227=ORIENTED_EDGE('',*,*,#184,.F.);
#228=ORIENTED_EDGE('',*,*,#183,.T.);
#229=ORIENTED_EDGE('',*,*,#182,.T.);
#230=ORIENTED_EDGE('',*,*,#185,.F.);
#231=ORIENTED_EDGE('',*,*,#180,.T.);
#232=ORIENTED_EDGE('',*,*,#186,.F.);
#233=ORIENTED_EDGE('',*,*,#187,.F.);
#234=ORIENTED_EDGE('',*,*,#188,.T.);
#235=ORIENTED_EDGE('',*,*,#189,.T.);
#236=ORIENTED_EDGE('',*,*,#188,.F.);
#237=ORIENTED_EDGE('',*,*,#187,.T.);
#238=ORIENTED_EDGE('',*,*,#186,.T.);
#239=ORIENTED_EDGE('',*,*,#189,.F.);
#240=CYLINDRICAL_SURFACE('',#329,0.9);
#241=CYLINDRICAL_SURFACE('',#335,0.11085);
#242=CYLINDRICAL_SURFACE('',#338,0.22);
#243=CYLINDRICAL_SURFACE('',#344,0.11085);
#244=CYLINDRICAL_SURFACE('',#347,0.22);
#245=CYLINDRICAL_SURFACE('',#353,0.11085);
#246=CYLINDRICAL_SURFACE('',#356,0.22);
#247=ADVANCED_FACE('',(#73),#240,.T.);
#248=ADVANCED_FACE('',(#74),#63,.T.);
#249=ADVANCED_FACE('',(#75),#64,.F.);
#250=ADVANCED_FACE('',(#76),#241,.F.);
#251=ADVANCED_FACE('',(#77),#242,.T.);
#252=ADVANCED_FACE('',(#78,#36),#65,.T.);
#253=ADVANCED_FACE('',(#79,#37),#66,.F.);
#254=ADVANCED_FACE('',(#80),#243,.F.);
#255=ADVANCED_FACE('',(#81),#244,.T.);
#256=ADVANCED_FACE('',(#82,#38),#67,.T.);
#257=ADVANCED_FACE('',(#83,#39),#68,.F.);
#258=ADVANCED_FACE('',(#84),#245,.F.);
#259=ADVANCED_FACE('',(#85),#246,.T.);
#260=ADVANCED_FACE('',(#86,#40),#69,.T.);
#261=ADVANCED_FACE('',(#87,#41),#70,.F.);
#262=ADVANCED_FACE('',(#88),#34,.T.);
#263=ADVANCED_FACE('',(#89),#35,.F.);
#264=ADVANCED_FACE('',(#90,#42),#71,.T.);
#265=ADVANCED_FACE('',(#91),#72,.F.);
#266=CLOSED_SHELL('',(#247,#248,#249));
#267=CLOSED_SHELL('',(#250,#251,#252,#253));
#268=CLOSED_SHELL('',(#254,#255,#256,#257));
#269=CLOSED_SHELL('',(#258,#259,#260,#261));
#270=CLOSED_SHELL('',(#262,#263,#264,#265));
#271=DERIVED_UNIT_ELEMENT(#281,1.);
#272=DERIVED_UNIT_ELEMENT(#658,-3.);
#273=DERIVED_UNIT_ELEMENT(#281,1.);
#274=DERIVED_UNIT_ELEMENT(#658,-3.);
#275=DERIVED_UNIT_ELEMENT(#281,1.);
#276=DERIVED_UNIT_ELEMENT(#658,-3.);
#277=DERIVED_UNIT_ELEMENT(#281,1.);
#278=DERIVED_UNIT_ELEMENT(#658,-3.);
#279=DERIVED_UNIT_ELEMENT(#281,1.);
#280=DERIVED_UNIT_ELEMENT(#658,-3.);
#281=(
MASS_UNIT()
NAMED_UNIT(*)
SI_UNIT(.KILO.,.GRAM.)
);
#282=DERIVED_UNIT((#271,#272));
#283=DERIVED_UNIT((#273,#274));
#284=DERIVED_UNIT((#275,#276));
#285=DERIVED_UNIT((#277,#278));
#286=DERIVED_UNIT((#279,#280));
#287=MEASURE_REPRESENTATION_ITEM('density measure',
POSITIVE_RATIO_MEASURE(7850.),#282);
#288=MEASURE_REPRESENTATION_ITEM('density measure',
POSITIVE_RATIO_MEASURE(7850.),#283);
#289=MEASURE_REPRESENTATION_ITEM('density measure',
POSITIVE_RATIO_MEASURE(7850.),#284);
#290=MEASURE_REPRESENTATION_ITEM('density measure',
POSITIVE_RATIO_MEASURE(7850.),#285);
#291=MEASURE_REPRESENTATION_ITEM('density measure',
POSITIVE_RATIO_MEASURE(7850.),#286);
#292=PROPERTY_DEFINITION_REPRESENTATION(#317,#302);
#293=PROPERTY_DEFINITION_REPRESENTATION(#318,#303);
#294=PROPERTY_DEFINITION_REPRESENTATION(#319,#304);
#295=PROPERTY_DEFINITION_REPRESENTATION(#320,#305);
#296=PROPERTY_DEFINITION_REPRESENTATION(#321,#306);
#297=PROPERTY_DEFINITION_REPRESENTATION(#322,#307);
#298=PROPERTY_DEFINITION_REPRESENTATION(#323,#308);
#299=PROPERTY_DEFINITION_REPRESENTATION(#324,#309);
#300=PROPERTY_DEFINITION_REPRESENTATION(#325,#310);
#301=PROPERTY_DEFINITION_REPRESENTATION(#326,#311);
#302=REPRESENTATION('material name',(#312),#651);
#303=REPRESENTATION('density',(#287),#651);
#304=REPRESENTATION('material name',(#313),#652);
#305=REPRESENTATION('density',(#288),#652);
#306=REPRESENTATION('material name',(#314),#653);
#307=REPRESENTATION('density',(#289),#653);
#308=REPRESENTATION('material name',(#315),#654);
#309=REPRESENTATION('density',(#290),#654);
#310=REPRESENTATION('material name',(#316),#655);
#311=REPRESENTATION('density',(#291),#655);
#312=DESCRIPTIVE_REPRESENTATION_ITEM('Steel','Steel');
#313=DESCRIPTIVE_REPRESENTATION_ITEM('Steel','Steel');
#314=DESCRIPTIVE_REPRESENTATION_ITEM('Steel','Steel');
#315=DESCRIPTIVE_REPRESENTATION_ITEM('Steel','Steel');
#316=DESCRIPTIVE_REPRESENTATION_ITEM('Steel','Steel');
#317=PROPERTY_DEFINITION('material property','material name',#686);
#318=PROPERTY_DEFINITION('material property','density of part',#686);
#319=PROPERTY_DEFINITION('material property','material name',#687);
#320=PROPERTY_DEFINITION('material property','density of part',#687);
#321=PROPERTY_DEFINITION('material property','material name',#688);
#322=PROPERTY_DEFINITION('material property','density of part',#688);
#323=PROPERTY_DEFINITION('material property','material name',#689);
#324=PROPERTY_DEFINITION('material property','density of part',#689);
#325=PROPERTY_DEFINITION('material property','material name',#690);
#326=PROPERTY_DEFINITION('material property','density of part',#690);
#327=AXIS2_PLACEMENT_3D('',#467,#371,#372);
#328=AXIS2_PLACEMENT_3D('',#468,#373,#374);
#329=AXIS2_PLACEMENT_3D('',#469,#375,#376);
#330=AXIS2_PLACEMENT_3D('',#471,#377,#378);
#331=AXIS2_PLACEMENT_3D('',#474,#380,#381);
#332=AXIS2_PLACEMENT_3D('',#475,#382,#383);
#333=AXIS2_PLACEMENT_3D('',#476,#384,#385);
#334=AXIS2_PLACEMENT_3D('',#477,#386,#387);
#335=AXIS2_PLACEMENT_3D('',#478,#388,#389);
#336=AXIS2_PLACEMENT_3D('',#480,#390,#391);
#337=AXIS2_PLACEMENT_3D('',#483,#393,#394);
#338=AXIS2_PLACEMENT_3D('',#484,#395,#396);
#339=AXIS2_PLACEMENT_3D('',#486,#397,#398);
#340=AXIS2_PLACEMENT_3D('',#489,#400,#401);
#341=AXIS2_PLACEMENT_3D('',#490,#402,#403);
#342=AXIS2_PLACEMENT_3D('',#491,#404,#405);
#343=AXIS2_PLACEMENT_3D('',#492,#406,#407);
#344=AXIS2_PLACEMENT_3D('',#493,#408,#409);
#345=AXIS2_PLACEMENT_3D('',#495,#410,#411);
#346=AXIS2_PLACEMENT_3D('',#498,#413,#414);
#347=AXIS2_PLACEMENT_3D('',#499,#415,#416);
#348=AXIS2_PLACEMENT_3D('',#501,#417,#418);
#349=AXIS2_PLACEMENT_3D('',#504,#420,#421);
#350=AXIS2_PLACEMENT_3D('',#505,#422,#423);
#351=AXIS2_PLACEMENT_3D('',#506,#424,#425);
#352=AXIS2_PLACEMENT_3D('',#507,#426,#427);
#353=AXIS2_PLACEMENT_3D('',#508,#428,#429);
#354=AXIS2_PLACEMENT_3D('',#510,#430,#431);
#355=AXIS2_PLACEMENT_3D('',#513,#433,#434);
#356=AXIS2_PLACEMENT_3D('',#514,#435,#436);
#357=AXIS2_PLACEMENT_3D('',#516,#437,#438);
#358=AXIS2_PLACEMENT_3D('',#519,#440,#441);
#359=AXIS2_PLACEMENT_3D('',#520,#442,#443);
#360=AXIS2_PLACEMENT_3D('',#521,#444,#445);
#361=AXIS2_PLACEMENT_3D('',#522,#446,#447);
#362=AXIS2_PLACEMENT_3D('',#632,#448,#449);
#363=AXIS2_PLACEMENT_3D('',#635,#451,#452);
#364=AXIS2_PLACEMENT_3D('',#636,#453,#454);
#365=AXIS2_PLACEMENT_3D('',#637,#455,#456);
#366=AXIS2_PLACEMENT_3D('',#638,#457,#458);
#367=AXIS2_PLACEMENT_3D('',#639,#459,#460);
#368=AXIS2_PLACEMENT_3D('',#640,#461,#462);
#369=AXIS2_PLACEMENT_3D('',#641,#463,#464);
#370=AXIS2_PLACEMENT_3D('',#642,#465,#466);
#371=DIRECTION('axis',(0.,0.,1.));
#372=DIRECTION('refdir',(1.,0.,0.));
#373=DIRECTION('axis',(0.,0.,1.));
#374=DIRECTION('refdir',(1.,0.,0.));
#375=DIRECTION('center_axis',(-3.91290427047693E-15,-3.77475828372558E-15,
1.));
#376=DIRECTION('ref_axis',(2.34326020266315E-17,-1.,2.09708793540308E-16));
#377=DIRECTION('center_axis',(-1.20768650323359E-17,2.09708793540308E-16,
1.));
#378=DIRECTION('ref_axis',(2.34326020266315E-17,-1.,2.09708793540308E-16));
#379=DIRECTION('',(3.91290427047693E-15,3.77475828372558E-15,-1.));
#380=DIRECTION('center_axis',(-1.20768650323359E-17,2.09708793540308E-16,
1.));
#381=DIRECTION('ref_axis',(2.34326020266315E-17,-1.,2.09708793540308E-16));
#382=DIRECTION('center_axis',(-1.20768650323359E-17,2.09708793540308E-16,
1.));
#383=DIRECTION('ref_axis',(1.,0.,1.20768650323359E-17));
#384=DIRECTION('center_axis',(-1.20768650323359E-17,2.09708793540308E-16,
1.));
#385=DIRECTION('ref_axis',(1.,0.,1.20768650323359E-17));
#386=DIRECTION('axis',(0.,0.,1.));
#387=DIRECTION('refdir',(1.,0.,0.));
#388=DIRECTION('center_axis',(5.33420963692557E-17,2.23191266415547E-16,
1.));
#389=DIRECTION('ref_axis',(6.12323399573677E-17,1.,-2.2090383449197E-16));
#390=DIRECTION('center_axis',(3.65482420381049E-17,2.22044604925031E-16,
1.));
#391=DIRECTION('ref_axis',(6.12323399573677E-17,1.,-2.2090383449197E-16));
#392=DIRECTION('',(5.33420963692557E-17,2.23191266415547E-16,1.));
#393=DIRECTION('center_axis',(-3.65482420381049E-17,-2.22044604925031E-16,
-1.));
#394=DIRECTION('ref_axis',(6.12323399573677E-17,1.,-2.2090383449197E-16));
#395=DIRECTION('center_axis',(7.07573965857729E-16,2.22044604925031E-16,
1.));
#396=DIRECTION('ref_axis',(6.12323399573677E-17,1.,-2.22044604925031E-16));
#397=DIRECTION('center_axis',(3.65482420381049E-17,2.22044604925031E-16,
1.));
#398=DIRECTION('ref_axis',(6.12323399573677E-17,1.,-2.22044604925031E-16));
#399=DIRECTION('',(-7.07573965857729E-16,-2.22044604925031E-16,-1.));
#400=DIRECTION('center_axis',(3.65482420381049E-17,2.22044604925031E-16,
1.));
#401=DIRECTION('ref_axis',(6.12323399573677E-17,1.,-2.22044604925031E-16));
#402=DIRECTION('center_axis',(3.65482420381049E-17,2.22044604925031E-16,
1.));
#403=DIRECTION('ref_axis',(1.,0.,-3.65482420381049E-17));
#404=DIRECTION('center_axis',(3.65482420381049E-17,2.22044604925031E-16,
1.));
#405=DIRECTION('ref_axis',(1.,0.,-3.65482420381049E-17));
#406=DIRECTION('axis',(0.,0.,1.));
#407=DIRECTION('refdir',(1.,0.,0.));
#408=DIRECTION('center_axis',(2.67050104691501E-17,2.23475472916938E-16,
1.));
#409=DIRECTION('ref_axis',(6.12323399573677E-17,1.,-2.20622898489799E-16));
#410=DIRECTION('center_axis',(7.30964840762108E-17,2.22044604925031E-16,
1.));
#411=DIRECTION('ref_axis',(6.12323399573677E-17,1.,-2.20622898489799E-16));
#412=DIRECTION('',(2.67050104691501E-17,2.23475472916938E-16,1.));
#413=DIRECTION('center_axis',(-7.30964840762108E-17,-2.22044604925031E-16,
-1.));
#414=DIRECTION('ref_axis',(6.12323399573677E-17,1.,-2.20622898489799E-16));
#415=DIRECTION('center_axis',(3.5378698292886E-16,2.22044604925031E-16,
1.));
#416=DIRECTION('ref_axis',(6.12323399573677E-17,1.,-2.22044604925031E-16));
#417=DIRECTION('center_axis',(7.30964840762108E-17,2.22044604925031E-16,
1.));
#418=DIRECTION('ref_axis',(6.12323399573677E-17,1.,-2.22044604925031E-16));
#419=DIRECTION('',(-3.5378698292886E-16,-2.22044604925031E-16,-1.));
#420=DIRECTION('center_axis',(7.30964840762108E-17,2.22044604925031E-16,
1.));
#421=DIRECTION('ref_axis',(6.12323399573677E-17,1.,-2.22044604925031E-16));
#422=DIRECTION('center_axis',(7.30964840762108E-17,2.22044604925031E-16,
1.));
#423=DIRECTION('ref_axis',(1.,0.,-7.30964840762108E-17));
#424=DIRECTION('center_axis',(7.30964840762108E-17,2.22044604925031E-16,
1.));
#425=DIRECTION('ref_axis',(1.,0.,-7.30964840762108E-17));
#426=DIRECTION('axis',(0.,0.,1.));
#427=DIRECTION('refdir',(1.,0.,0.));
#428=DIRECTION('center_axis',(3.55915734684346E-17,2.23380657027959E-16,
1.));
#429=DIRECTION('ref_axis',(6.12323399573677E-17,1.,-2.20716543823856E-16));
#430=DIRECTION('center_axis',(5.48223630571581E-17,2.22044604925031E-16,
1.));
#431=DIRECTION('ref_axis',(6.12323399573677E-17,1.,-2.20716543823856E-16));
#432=DIRECTION('',(3.55915734684346E-17,2.23380657027959E-16,1.));
#433=DIRECTION('center_axis',(-5.48223630571581E-17,-2.22044604925031E-16,
-1.));
#434=DIRECTION('ref_axis',(6.12323399573677E-17,1.,-2.20716543823856E-16));
#435=DIRECTION('center_axis',(4.71715977238479E-16,2.22044604925031E-16,
1.));
#436=DIRECTION('ref_axis',(6.12323399573677E-17,1.,-2.22044604925031E-16));
#437=DIRECTION('center_axis',(5.48223630571581E-17,2.22044604925031E-16,
1.));
#438=DIRECTION('ref_axis',(6.12323399573677E-17,1.,-2.22044604925031E-16));
#439=DIRECTION('',(-4.71715977238479E-16,-2.22044604925031E-16,-1.));
#440=DIRECTION('center_axis',(5.48223630571581E-17,2.22044604925031E-16,
1.));
#441=DIRECTION('ref_axis',(6.12323399573677E-17,1.,-2.22044604925031E-16));
#442=DIRECTION('center_axis',(5.48223630571581E-17,2.22044604925031E-16,
1.));
#443=DIRECTION('ref_axis',(1.,0.,-5.48223630571581E-17));
#444=DIRECTION('center_axis',(5.48223630571581E-17,2.22044604925031E-16,
1.));
#445=DIRECTION('ref_axis',(1.,0.,-5.48223630571581E-17));
#446=DIRECTION('axis',(0.,0.,1.));
#447=DIRECTION('refdir',(1.,0.,0.));
#448=DIRECTION('center_axis',(0.,1.78239428263286E-17,1.));
#449=DIRECTION('ref_axis',(1.,0.,0.));
#450=DIRECTION('',(0.,-9.54140069323007E-17,-1.));
#451=DIRECTION('center_axis',(0.,1.78239428263286E-17,1.));
#452=DIRECTION('ref_axis',(1.,0.,0.));
#453=DIRECTION('center_axis',(0.,1.78239428263286E-17,1.));
#454=DIRECTION('ref_axis',(1.,0.,0.));
#455=DIRECTION('center_axis',(0.,1.78239428263286E-17,1.));
#456=DIRECTION('ref_axis',(1.,0.,0.));
#457=DIRECTION('',(0.,0.,1.));
#458=DIRECTION('',(1.,0.,0.));
#459=DIRECTION('',(0.,0.,1.));
#460=DIRECTION('',(1.,0.,0.));
#461=DIRECTION('',(0.,0.,1.));
#462=DIRECTION('',(1.,0.,0.));
#463=DIRECTION('',(0.,0.,1.));
#464=DIRECTION('',(1.,0.,0.));
#465=DIRECTION('',(0.,0.,1.));
#466=DIRECTION('',(1.,0.,0.));
#467=CARTESIAN_POINT('',(0.,0.,0.));
#468=CARTESIAN_POINT('',(0.,0.,0.));
#469=CARTESIAN_POINT('Origin',(-11.4600001144409,-7.38999992370606,0.950000000000004));
#470=CARTESIAN_POINT('',(-11.4600001144409,-6.48999992370606,1.05));
#471=CARTESIAN_POINT('Origin',(-11.4600001144409,-7.38999992370606,1.05));
#472=CARTESIAN_POINT('',(-11.4600001144409,-6.48999992370606,0.950000000000004));
#473=CARTESIAN_POINT('',(-11.4600001144409,-6.48999992370606,0.950000000000004));
#474=CARTESIAN_POINT('Origin',(-11.4600001144409,-7.38999992370606,0.950000000000004));
#475=CARTESIAN_POINT('Origin',(-11.4600001144409,-7.38999992370606,1.05));
#476=CARTESIAN_POINT('Origin',(-11.4600001144409,-7.38999992370606,0.950000000000004));
#477=CARTESIAN_POINT('',(0.,0.,0.));
#478=CARTESIAN_POINT('Origin',(-9.86,-7.38999998092652,-0.284183333333329));
#479=CARTESIAN_POINT('',(-9.86,-7.50084998092652,5.79598702366013E-16));
#480=CARTESIAN_POINT('Origin',(-9.86,-7.38999998092652,5.55111512312578E-16));
#481=CARTESIAN_POINT('',(-9.86,-7.50084998092652,0.0999999999999992));
#482=CARTESIAN_POINT('',(-9.86,-7.50084998092652,-0.284183333333329));
#483=CARTESIAN_POINT('Origin',(-9.86,-7.38999998092652,0.0999999999999991));
#484=CARTESIAN_POINT('Origin',(-9.86,-7.38999998092652,5.32907051820075E-16));
#485=CARTESIAN_POINT('',(-9.86,-7.60999998092652,0.0999999999999992));
#486=CARTESIAN_POINT('Origin',(-9.86,-7.38999998092652,0.0999999999999991));
#487=CARTESIAN_POINT('',(-9.86,-7.60999998092652,5.81756864903582E-16));
#488=CARTESIAN_POINT('',(-9.86,-7.60999998092652,5.81756864903582E-16));
#489=CARTESIAN_POINT('Origin',(-9.86,-7.38999998092652,5.32907051820075E-16));
#490=CARTESIAN_POINT('Origin',(-9.86,-7.38999998092652,0.0999999999999991));
#491=CARTESIAN_POINT('Origin',(-9.86,-7.38999998092652,5.32907051820075E-16));
#492=CARTESIAN_POINT('',(0.,0.,0.));
#493=CARTESIAN_POINT('Origin',(-7.86,-7.38999998092652,-0.567516666666666));
#494=CARTESIAN_POINT('',(-7.86,-7.50084998092652,8.01612165535204E-16));
#495=CARTESIAN_POINT('Origin',(-7.86,-7.38999998092652,7.7715611723761E-16));
#496=CARTESIAN_POINT('',(-7.86,-7.50084998092652,0.200000000000001));
#497=CARTESIAN_POINT('',(-7.86,-7.50084998092652,-0.567516666666666));
#498=CARTESIAN_POINT('Origin',(-7.86,-7.38999998092652,0.200000000000001));
#499=CARTESIAN_POINT('Origin',(-7.86,-7.38999998092652,7.99360577730113E-16));
#500=CARTESIAN_POINT('',(-7.86,-7.60999998092652,0.200000000000001));
#501=CARTESIAN_POINT('Origin',(-7.86,-7.38999998092652,0.200000000000001));
#502=CARTESIAN_POINT('',(-7.86,-7.60999998092652,8.4821039081362E-16));
#503=CARTESIAN_POINT('',(-7.86,-7.60999998092652,8.4821039081362E-16));
#504=CARTESIAN_POINT('Origin',(-7.86,-7.38999998092652,7.99360577730113E-16));
#505=CARTESIAN_POINT('Origin',(-7.86,-7.38999998092652,0.200000000000001));
#506=CARTESIAN_POINT('Origin',(-7.86,-7.38999998092652,7.99360577730113E-16));
#507=CARTESIAN_POINT('',(0.,0.,0.));
#508=CARTESIAN_POINT('Origin',(-8.86,-7.38999998092652,-0.42585));
#509=CARTESIAN_POINT('',(-8.86,-7.50084998092652,6.3508909242671E-16));
#510=CARTESIAN_POINT('Origin',(-8.86,-7.38999998092652,6.10622663543836E-16));
#511=CARTESIAN_POINT('',(-8.86,-7.50084998092652,0.150000000000001));
#512=CARTESIAN_POINT('',(-8.86,-7.50084998092652,-0.42585));
#513=CARTESIAN_POINT('Origin',(-8.86,-7.38999998092652,0.150000000000001));
#514=CARTESIAN_POINT('Origin',(-8.86,-7.38999998092652,6.21724893790088E-16));
#515=CARTESIAN_POINT('',(-8.86,-7.60999998092652,0.150000000000001));
#516=CARTESIAN_POINT('Origin',(-8.86,-7.38999998092652,0.150000000000001));
#517=CARTESIAN_POINT('',(-8.86,-7.60999998092652,6.70574706873595E-16));
#518=CARTESIAN_POINT('',(-8.86,-7.60999998092652,6.70574706873595E-16));
#519=CARTESIAN_POINT('Origin',(-8.86,-7.38999998092652,6.21724893790088E-16));
#520=CARTESIAN_POINT('Origin',(-8.86,-7.38999998092652,0.150000000000001));
#521=CARTESIAN_POINT('Origin',(-8.86,-7.38999998092652,6.21724893790088E-16));
#522=CARTESIAN_POINT('',(0.,0.,0.));
#523=CARTESIAN_POINT('Ctrl Pts',(-11.4600264654444,-6.40480169366389,2.40625));
#524=CARTESIAN_POINT('Ctrl Pts',(-11.4600264654444,-6.40480169366389,2.40625));
#525=CARTESIAN_POINT('Ctrl Pts',(-11.4600264654444,-6.40480169366389,2.40625));
#526=CARTESIAN_POINT('Ctrl Pts',(-11.4600264654444,-6.40480169366389,2.40625));
#527=CARTESIAN_POINT('Ctrl Pts',(-11.4600264654444,-6.40480169366389,2.40625));
#528=CARTESIAN_POINT('Ctrl Pts',(-11.4600264654444,-6.40480169366389,2.40625));
#529=CARTESIAN_POINT('Ctrl Pts',(-11.4600264654444,-6.40480169366389,2.40625));
#530=CARTESIAN_POINT('Ctrl Pts',(-11.4600264654444,-6.40480169366389,2.40625));
#531=CARTESIAN_POINT('Ctrl Pts',(-11.4600264654444,-6.40480169366389,2.40625));
#532=CARTESIAN_POINT('Ctrl Pts',(-12.4608764654444,-6.40480169366389,2.40625));
#533=CARTESIAN_POINT('Ctrl Pts',(-12.4608764654444,-6.40480169366389,1.5304));
#534=CARTESIAN_POINT('Ctrl Pts',(-11.4600264654444,-6.40480169366389,1.5304));
#535=CARTESIAN_POINT('Ctrl Pts',(-10.4591764654444,-6.40480169366389,1.5304));
#536=CARTESIAN_POINT('Ctrl Pts',(-10.4591764654444,-6.40480169366389,2.40625));
#537=CARTESIAN_POINT('Ctrl Pts',(-10.4591764654444,-6.40480169366389,3.2821));
#538=CARTESIAN_POINT('Ctrl Pts',(-11.4600264654444,-6.40480169366389,3.2821));
#539=CARTESIAN_POINT('Ctrl Pts',(-12.4608764654444,-6.40480169366389,3.2821));
#540=CARTESIAN_POINT('Ctrl Pts',(-12.4608764654444,-6.40480169366389,2.40625));
#541=CARTESIAN_POINT('Ctrl Pts',(-12.4608764654444,-7.38995626472843,2.40625));
#542=CARTESIAN_POINT('Ctrl Pts',(-12.4608764654444,-7.38995626472843,1.5304));
#543=CARTESIAN_POINT('Ctrl Pts',(-11.4600264654444,-7.38995626472843,1.5304));
#544=CARTESIAN_POINT('Ctrl Pts',(-10.4591764654444,-7.38995626472843,1.5304));
#545=CARTESIAN_POINT('Ctrl Pts',(-10.4591764654444,-7.38995626472843,2.40625));
#546=CARTESIAN_POINT('Ctrl Pts',(-10.4591764654444,-7.38995626472843,3.2821));
#547=CARTESIAN_POINT('Ctrl Pts',(-11.4600264654444,-7.38995626472843,3.2821));
#548=CARTESIAN_POINT('Ctrl Pts',(-12.4608764654444,-7.38995626472843,3.2821));
#549=CARTESIAN_POINT('Ctrl Pts',(-12.4608764654444,-7.38995626472843,2.40625));
#550=CARTESIAN_POINT('Ctrl Pts',(-12.4608764654444,-8.37511083579296,2.40625));
#551=CARTESIAN_POINT('Ctrl Pts',(-12.4608764654444,-8.37511083579296,1.5304));
#552=CARTESIAN_POINT('Ctrl Pts',(-11.4600264654444,-8.37511083579296,1.5304));
#553=CARTESIAN_POINT('Ctrl Pts',(-10.4591764654444,-8.37511083579296,1.5304));
#554=CARTESIAN_POINT('Ctrl Pts',(-10.4591764654444,-8.37511083579296,2.40625));
#555=CARTESIAN_POINT('Ctrl Pts',(-10.4591764654444,-8.37511083579296,3.2821));
#556=CARTESIAN_POINT('Ctrl Pts',(-11.4600264654444,-8.37511083579296,3.2821));
#557=CARTESIAN_POINT('Ctrl Pts',(-12.4608764654444,-8.37511083579296,3.2821));
#558=CARTESIAN_POINT('Ctrl Pts',(-12.4608764654444,-8.37511083579296,2.40625));
#559=CARTESIAN_POINT('Ctrl Pts',(-11.4600264654444,-8.37511083579296,2.40625));
#560=CARTESIAN_POINT('Ctrl Pts',(-11.4600264654444,-8.37511083579296,2.40625));
#561=CARTESIAN_POINT('Ctrl Pts',(-11.4600264654444,-8.37511083579296,2.40625));
#562=CARTESIAN_POINT('Ctrl Pts',(-11.4600264654444,-8.37511083579296,2.40625));
#563=CARTESIAN_POINT('Ctrl Pts',(-11.4600264654444,-8.37511083579296,2.40625));
#564=CARTESIAN_POINT('Ctrl Pts',(-11.4600264654444,-8.37511083579296,2.40625));
#565=CARTESIAN_POINT('Ctrl Pts',(-11.4600264654444,-8.37511083579296,2.40625));
#566=CARTESIAN_POINT('Ctrl Pts',(-11.4600264654444,-8.37511083579296,2.40625));
#567=CARTESIAN_POINT('Ctrl Pts',(-11.4600264654444,-8.37511083579296,2.40625));
#568=CARTESIAN_POINT('',(-10.9473415057118,-7.80347677965669,1.75));
#569=CARTESIAN_POINT('Ctrl Pts',(-10.9473415057118,-7.80347677965669,1.75));
#570=CARTESIAN_POINT('Ctrl Pts',(-11.0008192298226,-7.86771554718208,1.75));
#571=CARTESIAN_POINT('Ctrl Pts',(-11.0661069987106,-7.92112830143437,1.75));
#572=CARTESIAN_POINT('Ctrl Pts',(-11.1875775987193,-7.98716894904041,1.75));
#573=CARTESIAN_POINT('Ctrl Pts',(-11.2386403291347,-8.00727283358929,1.75));
#574=CARTESIAN_POINT('Ctrl Pts',(-11.3388884383649,-8.03320446652493,1.75));
#575=CARTESIAN_POINT('Ctrl Pts',(-11.3874263772724,-8.04024448352166,1.75));
#576=CARTESIAN_POINT('Ctrl Pts',(-11.4858957475949,-8.04371859743428,1.75));
#577=CARTESIAN_POINT('Ctrl Pts',(-11.5355636647103,-8.03997761918413,1.75));
#578=CARTESIAN_POINT('Ctrl Pts',(-11.6346319592437,-8.02135641935086,1.75));
#579=CARTESIAN_POINT('Ctrl Pts',(-11.6836821137087,-8.00619449109873,1.75000000000003));
#580=CARTESIAN_POINT('Ctrl Pts',(-11.7961931288003,-7.95669222087847,1.75000000000003));
#581=CARTESIAN_POINT('Ctrl Pts',(-11.8568089797377,-7.91739255792793,1.75));
#582=CARTESIAN_POINT('Ctrl Pts',(-11.9688054197906,-7.8155158465735,1.75));
#583=CARTESIAN_POINT('Ctrl Pts',(-12.017507969871,-7.75169192704437,1.75));
#584=CARTESIAN_POINT('Ctrl Pts',(-12.0892294590661,-7.6098256819877,1.75));
#585=CARTESIAN_POINT('Ctrl Pts',(-12.111700992008,-7.53310478988188,1.75));
#586=CARTESIAN_POINT('Ctrl Pts',(-12.1280641291807,-7.370277117531,1.75));
#587=CARTESIAN_POINT('Ctrl Pts',(-12.1198895096228,-7.28560535995156,1.74999999996852));
#588=CARTESIAN_POINT('Ctrl Pts',(-12.0709493601079,-7.12279564968944,1.74999999996852));
#589=CARTESIAN_POINT('Ctrl Pts',(-12.0301944257008,-7.04652886604775,1.75000000000001));
#590=CARTESIAN_POINT('Ctrl Pts',(-11.9225502550415,-6.91521527450252,1.75000000000001));
#591=CARTESIAN_POINT('Ctrl Pts',(-11.8571947027746,-6.86105267113708,1.75));
#592=CARTESIAN_POINT('Ctrl Pts',(-11.735384020546,-6.79401366500411,1.75));
#593=CARTESIAN_POINT('Ctrl Pts',(-11.684166760281,-6.77358063166293,1.75));
#594=CARTESIAN_POINT('Ctrl Pts',(-11.5837883409202,-6.74719361355395,1.75));
#595=CARTESIAN_POINT('Ctrl Pts',(-11.5352996004324,-6.73996407906679,1.75));
#596=CARTESIAN_POINT('Ctrl Pts',(-11.4368277884516,-6.73609401858447,1.75));
#597=CARTESIAN_POINT('Ctrl Pts',(-11.3871071866837,-6.73964258913636,1.75000000000038));
#598=CARTESIAN_POINT('Ctrl Pts',(-11.2880755988424,-6.75786230963822,1.75000000000038));
#599=CARTESIAN_POINT('Ctrl Pts',(-11.2391049913361,-6.77277531347841,1.75000000000003));
#600=CARTESIAN_POINT('Ctrl Pts',(-11.1271321688561,-6.82143589015235,1.75000000000003));
#601=CARTESIAN_POINT('Ctrl Pts',(-11.0668646521895,-6.85999098915627,1.75));
#602=CARTESIAN_POINT('Ctrl Pts',(-10.9545836012349,-6.96056075669826,1.75));
#603=CARTESIAN_POINT('Ctrl Pts',(-10.9053788244875,-7.02402207620859,1.75));
#604=CARTESIAN_POINT('Ctrl Pts',(-10.8325549051522,-7.16534642516749,1.75));
#605=CARTESIAN_POINT('Ctrl Pts',(-10.8094869908162,-7.24189093181034,1.75));
#606=CARTESIAN_POINT('Ctrl Pts',(-10.7918869039909,-7.40429473921116,1.75));
#607=CARTESIAN_POINT('Ctrl Pts',(-10.7993161435632,-7.48873260002816,1.75));
#608=CARTESIAN_POINT('Ctrl Pts',(-10.8346973525316,-7.61045211681051,1.75));
#609=CARTESIAN_POINT('Ctrl Pts',(-10.8506693031522,-7.65018205220001,1.75));
#610=CARTESIAN_POINT('Ctrl Pts',(-10.8918846441917,-7.72916188534104,1.75));
#611=CARTESIAN_POINT('Ctrl Pts',(-10.9176768045729,-7.76784280547656,1.75));
#612=CARTESIAN_POINT('Ctrl Pts',(-10.9473415057118,-7.80347677965669,1.75));
#613=CARTESIAN_POINT('Ctrl Pts',(-12.1600264654444,-7.38995626472843,4.20979583622251E-15));
#614=CARTESIAN_POINT('Ctrl Pts',(-12.1600264654444,-8.0789694644736,4.27553734643945E-15));
#615=CARTESIAN_POINT('Ctrl Pts',(-11.4600264654444,-8.0789694644736,4.27553734643945E-15));
#616=CARTESIAN_POINT('Ctrl Pts',(-10.7600264654444,-8.0789694644736,4.27553734643945E-15));
#617=CARTESIAN_POINT('Ctrl Pts',(-10.7600264654444,-7.38995626472843,4.20979583622251E-15));
#618=CARTESIAN_POINT('Ctrl Pts',(-10.7600264654444,-6.70094306498325,4.14405432600558E-15));
#619=CARTESIAN_POINT('Ctrl Pts',(-11.4600264654444,-6.70094306498325,4.14405432600558E-15));
#620=CARTESIAN_POINT('Ctrl Pts',(-12.1600264654444,-6.70094306498325,4.14405432600558E-15));
#621=CARTESIAN_POINT('Ctrl Pts',(-12.1600264654444,-7.38995626472843,4.20979583622251E-15));
#622=CARTESIAN_POINT('Ctrl Pts',(-12.1600264654444,-7.38995626472843,1.75));
#623=CARTESIAN_POINT('Ctrl Pts',(-12.1600264654444,-8.0789694644736,1.75));
#624=CARTESIAN_POINT('Ctrl Pts',(-11.4600264654444,-8.0789694644736,1.75));
#625=CARTESIAN_POINT('Ctrl Pts',(-10.7600264654444,-8.0789694644736,1.75));
#626=CARTESIAN_POINT('Ctrl Pts',(-10.7600264654444,-7.38995626472843,1.75));
#627=CARTESIAN_POINT('Ctrl Pts',(-10.7600264654444,-6.70094306498325,1.75));
#628=CARTESIAN_POINT('Ctrl Pts',(-11.4600264654444,-6.70094306498325,1.75));
#629=CARTESIAN_POINT('Ctrl Pts',(-12.1600264654444,-6.70094306498325,1.75));
#630=CARTESIAN_POINT('Ctrl Pts',(-12.1600264654444,-7.38995626472843,1.75));
#631=CARTESIAN_POINT('',(-12.1600264654444,-7.38995626472843,1.75));
#632=CARTESIAN_POINT('Origin',(-11.4600264654444,-7.38995626472843,1.75));
#633=CARTESIAN_POINT('',(-12.1600264654444,-7.38995626472843,4.2632564145606E-15));
#634=CARTESIAN_POINT('',(-12.1600264654444,-7.38995626472843,4.2632564145606E-15));
#635=CARTESIAN_POINT('Origin',(-11.4600264654444,-7.38995626472843,4.2632564145606E-15));
#636=CARTESIAN_POINT('Origin',(-11.4600264654444,-7.38995626472843,1.75));
#637=CARTESIAN_POINT('Origin',(-11.4600264654444,-7.38995626472843,4.2632564145606E-15));
#638=CARTESIAN_POINT('',(0.,0.,0.));
#639=CARTESIAN_POINT('',(0.,0.,0.));
#640=CARTESIAN_POINT('',(0.,0.,0.));
#641=CARTESIAN_POINT('',(0.,0.,0.));
#642=CARTESIAN_POINT('',(0.,0.,0.));
#643=UNCERTAINTY_MEASURE_WITH_UNIT(LENGTH_MEASURE(0.001),#657,
'DISTANCE_ACCURACY_VALUE',
'Maximum model space distance between geometric entities at asserted c
onnectivities');
#644=UNCERTAINTY_MEASURE_WITH_UNIT(LENGTH_MEASURE(0.001),#657,
'DISTANCE_ACCURACY_VALUE',
'Maximum model space distance between geometric entities at asserted c
onnectivities');
#645=UNCERTAINTY_MEASURE_WITH_UNIT(LENGTH_MEASURE(0.001),#657,
'DISTANCE_ACCURACY_VALUE',
'Maximum model space distance between geometric entities at asserted c
onnectivities');
#646=UNCERTAINTY_MEASURE_WITH_UNIT(LENGTH_MEASURE(0.001),#657,
'DISTANCE_ACCURACY_VALUE',
'Maximum model space distance between geometric entities at asserted c
onnectivities');
#647=UNCERTAINTY_MEASURE_WITH_UNIT(LENGTH_MEASURE(0.001),#657,
'DISTANCE_ACCURACY_VALUE',
'Maximum model space distance between geometric entities at asserted c
onnectivities');
#648=UNCERTAINTY_MEASURE_WITH_UNIT(LENGTH_MEASURE(0.001),#657,
'DISTANCE_ACCURACY_VALUE',
'Maximum model space distance between geometric entities at asserted c
onnectivities');
#649=UNCERTAINTY_MEASURE_WITH_UNIT(LENGTH_MEASURE(0.001),#657,
'DISTANCE_ACCURACY_VALUE',
'Maximum model space distance between geometric entities at asserted c
onnectivities');
#650=(
GEOMETRIC_REPRESENTATION_CONTEXT(3)
GLOBAL_UNCERTAINTY_ASSIGNED_CONTEXT((#643))
GLOBAL_UNIT_ASSIGNED_CONTEXT((#657,#659,#660))
REPRESENTATION_CONTEXT('','3D')
);
#651=(
GEOMETRIC_REPRESENTATION_CONTEXT(3)
GLOBAL_UNCERTAINTY_ASSIGNED_CONTEXT((#644))
GLOBAL_UNIT_ASSIGNED_CONTEXT((#657,#659,#660))
REPRESENTATION_CONTEXT('','3D')
);
#652=(
GEOMETRIC_REPRESENTATION_CONTEXT(3)
GLOBAL_UNCERTAINTY_ASSIGNED_CONTEXT((#645))
GLOBAL_UNIT_ASSIGNED_CONTEXT((#657,#659,#660))
REPRESENTATION_CONTEXT('','3D')
);
#653=(
GEOMETRIC_REPRESENTATION_CONTEXT(3)
GLOBAL_UNCERTAINTY_ASSIGNED_CONTEXT((#646))
GLOBAL_UNIT_ASSIGNED_CONTEXT((#657,#659,#660))
REPRESENTATION_CONTEXT('','3D')
);
#654=(
GEOMETRIC_REPRESENTATION_CONTEXT(3)
GLOBAL_UNCERTAINTY_ASSIGNED_CONTEXT((#647))
GLOBAL_UNIT_ASSIGNED_CONTEXT((#657,#659,#660))
REPRESENTATION_CONTEXT('','3D')
);
#655=(
GEOMETRIC_REPRESENTATION_CONTEXT(3)
GLOBAL_UNCERTAINTY_ASSIGNED_CONTEXT((#648))
GLOBAL_UNIT_ASSIGNED_CONTEXT((#657,#659,#660))
REPRESENTATION_CONTEXT('','3D')
);
#656=(
GEOMETRIC_REPRESENTATION_CONTEXT(3)
GLOBAL_UNCERTAINTY_ASSIGNED_CONTEXT((#649))
GLOBAL_UNIT_ASSIGNED_CONTEXT((#657,#659,#660))
REPRESENTATION_CONTEXT('','3D')
);
#657=(
LENGTH_UNIT()
NAMED_UNIT(*)
SI_UNIT(.CENTI.,.METRE.)
);
#658=(
LENGTH_UNIT()
NAMED_UNIT(*)
SI_UNIT($,.METRE.)
);
#659=(
NAMED_UNIT(*)
PLANE_ANGLE_UNIT()
SI_UNIT($,.RADIAN.)
);
#660=(
NAMED_UNIT(*)
SI_UNIT($,.STERADIAN.)
SOLID_ANGLE_UNIT()
);
#661=SHAPE_DEFINITION_REPRESENTATION(#667,#678);
#662=SHAPE_DEFINITION_REPRESENTATION(#668,#679);
#663=SHAPE_DEFINITION_REPRESENTATION(#669,#680);
#664=SHAPE_DEFINITION_REPRESENTATION(#670,#681);
#665=SHAPE_DEFINITION_REPRESENTATION(#671,#682);
#666=SHAPE_DEFINITION_REPRESENTATION(#672,#683);
#667=PRODUCT_DEFINITION_SHAPE('',$,#685);
#668=PRODUCT_DEFINITION_SHAPE('',$,#686);
#669=PRODUCT_DEFINITION_SHAPE('',$,#687);
#670=PRODUCT_DEFINITION_SHAPE('',$,#688);
#671=PRODUCT_DEFINITION_SHAPE('',$,#689);
#672=PRODUCT_DEFINITION_SHAPE('',$,#690);
#673=PRODUCT_DEFINITION_SHAPE($,$,#26);
#674=PRODUCT_DEFINITION_SHAPE($,$,#27);
#675=PRODUCT_DEFINITION_SHAPE($,$,#28);
#676=PRODUCT_DEFINITION_SHAPE($,$,#29);
#677=PRODUCT_DEFINITION_SHAPE($,$,#30);
#678=SHAPE_REPRESENTATION('',(#327,#366,#367,#368,#369,#370),#650);
#679=SHAPE_REPRESENTATION('',(#328),#651);
#680=SHAPE_REPRESENTATION('',(#334),#652);
#681=SHAPE_REPRESENTATION('',(#343),#653);
#682=SHAPE_REPRESENTATION('',(#352),#654);
#683=SHAPE_REPRESENTATION('',(#361),#655);
#684=PRODUCT_DEFINITION_CONTEXT('part definition',#704,'design');
#685=PRODUCT_DEFINITION('2026-09-22-22-02-49-483','Cheesebox case',#691,
#684);
#686=PRODUCT_DEFINITION('2026-09-22-22-02-52-857','Component1',#692,#684);
#687=PRODUCT_DEFINITION('2026-09-22-22-02-53-373','Component3',#693,#684);
#688=PRODUCT_DEFINITION('2026-09-22-22-02-53-485','Component4',#694,#684);
#689=PRODUCT_DEFINITION('2026-09-22-22-02-53-600','Component5',#695,#684);
#690=PRODUCT_DEFINITION('2026-09-22-22-02-53-717','Component6',#696,#684);
#691=PRODUCT_DEFINITION_FORMATION('',$,#706);
#692=PRODUCT_DEFINITION_FORMATION('',$,#707);
#693=PRODUCT_DEFINITION_FORMATION('',$,#708);
#694=PRODUCT_DEFINITION_FORMATION('',$,#709);
#695=PRODUCT_DEFINITION_FORMATION('',$,#710);
#696=PRODUCT_DEFINITION_FORMATION('',$,#711);
#697=PRODUCT_RELATED_PRODUCT_CATEGORY('Cheesebox case','Cheesebox case',
(#706));
#698=PRODUCT_RELATED_PRODUCT_CATEGORY('Component1','Component1',(#707));
#699=PRODUCT_RELATED_PRODUCT_CATEGORY('Component3','Component3',(#708));
#700=PRODUCT_RELATED_PRODUCT_CATEGORY('Component4','Component4',(#709));
#701=PRODUCT_RELATED_PRODUCT_CATEGORY('Component5','Component5',(#710));
#702=PRODUCT_RELATED_PRODUCT_CATEGORY('Component6','Component6',(#711));
#703=APPLICATION_PROTOCOL_DEFINITION('international standard',
'automotive_design',2009,#704);
#704=APPLICATION_CONTEXT(
'Core Data for Automotive Mechanical Design Process');
#705=PRODUCT_CONTEXT('part definition',#704,'mechanical');
#706=PRODUCT('2026-09-22-22-02-49-483','Cheesebox case',$,(#705));
#707=PRODUCT('2026-09-22-22-02-52-857','Component1',$,(#705));
#708=PRODUCT('2026-09-22-22-02-53-373','Component3',$,(#705));
#709=PRODUCT('2026-09-22-22-02-53-485','Component4',$,(#705));
#710=PRODUCT('2026-09-22-22-02-53-600','Component5',$,(#705));
#711=PRODUCT('2026-09-22-22-02-53-717','Component6',$,(#705));
#712=PRESENTATION_STYLE_ASSIGNMENT((#714));
#713=PRESENTATION_STYLE_ASSIGNMENT((#715));
#714=SURFACE_STYLE_USAGE(.BOTH.,#716);
#715=SURFACE_STYLE_USAGE(.BOTH.,#717);
#716=SURFACE_SIDE_STYLE('',(#718));
#717=SURFACE_SIDE_STYLE('',(#719));
#718=SURFACE_STYLE_FILL_AREA(#720);
#719=SURFACE_STYLE_FILL_AREA(#721);
#720=FILL_AREA_STYLE('Steel - Satin',(#722));
#721=FILL_AREA_STYLE('Base Material - Opaque',(#723));
#722=FILL_AREA_STYLE_COLOUR('Steel - Satin',#724);
#723=FILL_AREA_STYLE_COLOUR('Base Material - Opaque',#725);
#724=COLOUR_RGB('Steel - Satin',0.627450980392157,0.627450980392157,0.627450980392157);
#725=COLOUR_RGB('Base Material - Opaque',1.,0.,0.);
ENDSEC;
END-ISO-10303-21;
